<?xml version="1.0" encoding="utf-8"?>
<!-- Svg Vector Icons : http://www.onlinewebfonts.com/icon -->
<!DOCTYPE svg PUBLIC "-//W3C//DTD SVG 1.1//EN" "http://www.w3.org/Graphics/SVG/1.1/DTD/svg11.dtd">
<svg version="1.1" xmlns="http://www.w3.org/2000/svg" xmlns:xlink="http://www.w3.org/1999/xlink" x="0px" y="0px" viewBox="0 0 1000 1000" enable-background="new 0 0 1000 1000" xml:space="preserve">
<metadata> Svg Vector Icons : http://www.onlinewebfonts.com/icon </metadata>
<g><g><path d="M160.8,349.2H10v301.5h150.8l301.5,226.2h75.4V123.1h-75.4L160.8,349.2z M644.3,393.4c-14.7-14.7-38.6-14.7-53.3,0c-14.7,14.7-14.7,38.6,0,53.3c29.4,29.4,29.4,77.2,0,106.6c-14.7,14.7-14.7,38.6,0,53.3c14.7,14.7,38.6,14.7,53.3,0C703.2,547.7,703.2,452.3,644.3,393.4z M750.9,286.8c-14.7-14.7-38.6-14.7-53.3,0c-14.7,14.7-14.7,38.6,0,53.3c88.3,88.3,88.3,231.5,0,319.8c-14.7,14.7-14.7,38.6,0,53.3c14.7,14.7,38.6,14.7,53.3,0C868.7,595.5,868.7,404.5,750.9,286.8z M857.5,180.2c-14.7-14.7-38.6-14.7-53.3,0c-14.7,14.7-14.7,38.6,0,53.3c147.2,147.2,147.2,385.9,0,533c-14.7,14.7-14.7,38.6,0,53.3s38.6,14.7,53.3,0C1034.2,643.2,1034.2,356.8,857.5,180.2z"/></g></g>
</svg>